<svg version="1.1" id="Слой_1" xmlns="http://www.w3.org/2000/svg" x="0" y="0" viewBox="0 0 158 61" xml:space="preserve"><style>.st0{fill:#1b5093;stroke:#1b5093;stroke-width:.1;stroke-miterlimit:10}</style><path class="st0" d="m12.14 48.89-3.9 5.12-.89 1.22.02-.71v-5.64h-.84v7.71h.66l3.89-5.09c.41-.54.7-.95.9-1.22l-.01 6.31h.83v-7.71h-.66zm8.48 0v3.27h-4.31v-3.27h-.83v7.72h.83v-3.67h4.31v3.67h.84v-7.72zm8.67 0v3.27h-4.32v-3.27h-.83v7.72h.83v-3.67h4.32v3.67h.83v-7.72zm8.94.92c-.62-.74-1.47-1.11-2.52-1.11-1.04 0-1.89.38-2.52 1.12-.63.74-.94 1.73-.94 2.95 0 1.22.32 2.2.94 2.93.63.74 1.48 1.11 2.53 1.11 1.02 0 1.86-.38 2.5-1.12.63-.74.95-1.72.95-2.92-.01-1.23-.33-2.22-.94-2.96zm-2.52 6.21c-.8 0-1.45-.29-1.91-.87-.46-.58-.7-1.39-.7-2.39 0-1.02.24-1.83.71-2.42.47-.58 1.1-.88 1.9-.88.78 0 1.41.3 1.88.88.47.59.7 1.4.7 2.41s-.23 1.82-.7 2.39c-.45.59-1.09.88-1.88.88zm11.12-2.7a1.9 1.9 0 0 0-.68-.62c-.13-.07-.26-.12-.38-.15.25-.09.48-.23.69-.41.3-.27.45-.68.45-1.21 0-.75-.25-1.29-.73-1.59-.47-.3-1.16-.45-2.05-.45H41.3v7.71h2.88c.9 0 1.62-.18 2.15-.54.54-.36.81-.93.81-1.68-.02-.42-.12-.78-.31-1.06zm-4.72-.36h2.05c.66 0 1.18.12 1.56.36.37.23.55.59.55 1.09 0 .52-.19.88-.59 1.09-.41.22-.99.33-1.71.33h-1.86v-2.87zm3.52-1.1c-.29.21-.7.32-1.23.32h-2.28v-2.52h2.05c.6 0 1.07.1 1.41.3.32.19.48.51.48.98-.01.41-.15.71-.43.92zm8.83 4.65c-.04-1.06-.06-1.87-.06-2.41v-2.55c0-.95-.26-1.67-.76-2.14-.5-.47-1.28-.71-2.3-.71-.37 0-.76.04-1.14.11-.39.08-.67.16-.84.27l-.06.02v.79l.12-.04c.74-.25 1.39-.37 1.9-.37.78 0 1.36.18 1.71.52.35.35.53.87.53 1.55v.83c-.78-.27-1.52-.4-2.22-.4-.79 0-1.44.22-1.94.65-.51.44-.76 1.01-.76 1.72 0 .81.24 1.43.7 1.84.46.41 1.08.61 1.84.61.46 0 .94-.11 1.42-.33.41-.19.75-.41 1-.66l.1.79h.76v-.09zm-3.2-3.75c.54 0 .98.03 1.29.09.3.06.64.16 1.01.29v1.78c-.28.3-.6.57-.97.79-.37.22-.84.33-1.41.33-.51 0-.93-.14-1.23-.42-.31-.27-.46-.7-.46-1.27 0-.51.16-.9.46-1.17.31-.28.75-.42 1.31-.42zm11.38 3.06v-6.93h-.83v6.93h-3.99v-6.93h-.83v7.72h6.02v2.73h.8v-3.52zm8.94-6.93-3.9 5.12-.89 1.22.02-.71v-5.64h-.83v7.71h.66l3.89-5.09c.41-.54.7-.95.9-1.22l-.01 6.31h.83v-7.71h-.67zm8.77.92c-.62-.74-1.47-1.11-2.52-1.11-1.04 0-1.89.38-2.52 1.12-.63.74-.94 1.73-.94 2.95 0 1.22.32 2.2.94 2.93.63.74 1.48 1.11 2.53 1.11 1.02 0 1.86-.38 2.5-1.12.63-.74.95-1.72.95-2.92-.01-1.23-.32-2.22-.94-2.96zm-2.52 6.21c-.8 0-1.45-.29-1.91-.87-.46-.58-.7-1.39-.7-2.39 0-1.02.24-1.83.71-2.42.47-.58 1.1-.88 1.9-.88.78 0 1.41.3 1.88.88.47.59.7 1.4.7 2.41s-.23 1.82-.7 2.39c-.45.59-1.08.88-1.88.88zm10.72-7.13v3.27h-4.32v-3.27h-.83v7.72h.83v-3.67h4.32v3.67h.83v-7.72zm8.66 0v3.27H92.9v-3.27h-.84v7.72h.84v-3.67h4.31v3.67h.83v-7.72zm10.28 0h.85v7.71h-.85zm9.21 3.5c0-1.26-.27-2.2-.81-2.79-.54-.59-1.28-.9-2.18-.9-.61 0-1.17.16-1.66.49-.49.32-.88.79-1.16 1.39-.28.59-.42 1.3-.42 2.09 0 1.31.33 2.33.97 3.05.65.72 1.58 1.09 2.78 1.09.93 0 1.66-.14 2.17-.43l.05-.03v-.81l-.13.06c-.6.28-1.3.42-2.09.42-.91 0-1.63-.27-2.13-.8-.49-.52-.74-1.35-.76-2.46h5.37v-.37zm-5.35-.39c.07-.73.32-1.34.74-1.81.44-.48.98-.73 1.61-.73.69 0 1.22.22 1.58.66.35.43.54 1.06.56 1.88h-4.49zm16.3-2.19c-.62-.74-1.47-1.11-2.52-1.11-1.04 0-1.89.38-2.52 1.12-.63.74-.94 1.73-.94 2.95 0 1.22.32 2.2.94 2.93.63.74 1.48 1.11 2.53 1.11 1.02 0 1.86-.38 2.5-1.12.63-.74.95-1.72.95-2.92-.01-1.23-.32-2.22-.94-2.96zm-2.52 6.21c-.8 0-1.45-.29-1.9-.87-.46-.58-.7-1.39-.7-2.39 0-1.02.24-1.83.71-2.42.47-.58 1.1-.88 1.9-.88.78 0 1.41.3 1.88.88.47.59.7 1.4.7 2.41 0 1.01-.23 1.82-.7 2.39-.46.59-1.09.88-1.89.88zm7.24-3.37 3.95-3.76h-1.15l-3.63 3.53v-3.53h-.84v7.72h.84v-3.64l3.84 3.61.02.03h1.11zm10.99-3.76v3.27h-4.31v-3.27h-.84v7.72h.84v-3.67h4.31v3.67h.83v-7.72zm8.74 7.62c-.04-1.07-.06-1.88-.06-2.41v-2.55c0-.95-.26-1.67-.76-2.14-.5-.47-1.28-.71-2.3-.71-.37 0-.76.04-1.14.11-.39.08-.67.16-.84.27l-.05.03v.79l.12-.04c.74-.25 1.38-.37 1.9-.37.78 0 1.36.18 1.71.52.35.35.53.87.53 1.55v.83c-.78-.27-1.52-.4-2.22-.4-.79 0-1.44.22-1.94.65-.51.44-.76 1.01-.76 1.72 0 .81.24 1.43.71 1.84.46.41 1.08.61 1.84.61.46 0 .94-.11 1.42-.33.41-.19.75-.41 1-.66l.1.79h.76l-.02-.1zm-3.2-3.75c.54 0 .98.03 1.29.09.3.06.64.16 1.01.29v1.78c-.28.3-.6.57-.97.79-.37.22-.84.33-1.41.33-.51 0-.93-.14-1.23-.42-.31-.27-.46-.7-.46-1.27 0-.51.16-.9.46-1.17.31-.28.75-.42 1.31-.42z"/><path d="M53.02 40.34c-2.04.44-4.27.64-7.24.64-6.27 0-12.19-.99-12.19-8.58 0-6.17 4.23-7.25 7.19-7.7l8.17-1.29v-.89c0-1.18-.19-1.87-.93-2.27-.58-.35-1.7-.49-3.06-.49-2.91 0-6.8 1.08-7.77 1.37-.15.05-.24.05-.39.05-.29 0-.49-.15-.54-.45 0 0-.86-3.87-.87-3.94-.01-.08-.04-.2-.04-.3 0-.5.28-.69.62-.84.87-.34 5.64-1.87 11.12-1.87 3.35 0 5.83.49 7.53 1.47 2.38 1.33 3.35 3.5 3.35 6.42v13.42c0 3.92-1.7 4.46-4.95 5.25zM49.08 28.4l-3.89.64c-1.6.24-2.86.64-2.86 3.26 0 2.71 2.09 3.16 3.54 3.16 1.61 0 3.21-.4 3.21-.4V28.4zm50.87.94c0 .79-.19 1.63-1.41 1.63H83.83c0 1.72.68 2.91 2.33 3.5 1.02.4 2.48.59 4.37.59 2.92 0 5.69-.93 6.46-1.13l.14-.02c.34 0 .67.09.81.63l.79 3.43c.02.09.05.25.05.35 0 .5-.2.75-.62.94-.43.19-4.72 1.73-9.28 1.73-9.48 0-14.09-3.16-14.09-13.37 0-10.26 3.35-13.81 12.68-13.81 4.67 0 7.77.93 9.67 2.91 2.09 2.18 2.82 5.52 2.82 10.26v2.36zm-8.84-4.4c0-.88-.1-1.53-.2-2.22-.39-2.27-1.5-3.01-3.25-3.01-2.62 0-3.45.98-3.69 2.71-.14.99-.14 1.97-.14 3.31h7.24c.04-.24.04-.54.04-.79zM32.4 39.65l-7.73-12.73 7.64-11.85c0-.05.05-.1.05-.2 0-.2-.1-.49-.44-.49H23.2c-.24 0-.48.05-.68.44l-6.98 11.95V3.21c0-.44-.35-.74-.82-.74H7.33c-.49 0-.83.3-.83.74V39.6c0 .44.34.74.83.74h7.39c.48 0 .82-.3.82-.74V27.46L21.95 40c.14.3.44.35.68.35h9.38c.24 0 .43-.24.43-.49.01-.06.01-.1-.04-.21zM71.11 3.21c0-.44-.34-.74-.82-.74h-7.53c-.48 0-.82.3-.82.74V39.6c0 .44.34.74.82.74h1.92c.56 0 2.61-.01 4.11-.71 1.5-.68 1.95-1.68 2.11-2.44.18-.81.21-1.39.21-2.05V3.21zm77.27 37.13c-2.05.44-4.27.64-7.24.64-6.27 0-12.19-.99-12.19-8.58 0-6.17 4.23-7.25 7.19-7.7l8.16-1.29v-.89c0-1.18-.19-1.87-.92-2.27-.59-.35-1.7-.49-3.06-.49-2.91 0-6.8 1.08-7.78 1.37-.15.05-.24.05-.39.05-.29 0-.49-.15-.54-.45 0 0-.85-3.87-.87-3.94-.01-.08-.04-.2-.04-.3 0-.5.28-.69.62-.84.88-.34 5.64-1.87 11.13-1.87 3.35 0 5.83.49 7.53 1.47 2.38 1.33 3.35 3.5 3.35 6.42v13.42c0 3.92-1.7 4.46-4.95 5.25zm-3.94-11.94-3.89.64c-1.6.24-2.87.64-2.87 3.26 0 2.71 2.09 3.16 3.55 3.16 1.6 0 3.21-.4 3.21-.4V28.4zm-17.53-14.03h-7.54a.76.76 0 0 0-.74.61c-.01.03-3.66 17.71-3.72 18.04h-.99c-.06-.34-3.71-18.01-3.72-18.04a.757.757 0 0 0-.73-.61h-7.54c-.41 0-.75.35-.75.77 0 .05.01.1.02.15.03.17 5.33 20.59 5.81 22.38.44 1.66 1.69 2.66 3.4 2.66h8.03c1.7 0 2.96-1.01 3.41-2.66.47-1.79 5.78-22.21 5.81-22.38.01-.05.02-.1.02-.15-.02-.42-.36-.77-.77-.77zm-78.12-3.74c-.08-.08-.57-.37-1.11-.76-.55-.41-1.08-.83-1.14-.87a.419.419 0 0 0-.27-.09c-.1 0-.2.03-.27.09-.06.04-.59.46-1.14.87-.54.39-1.04.68-1.11.76-.04.04-.06.09-.06.15.01.04.02.08.04.11.03.05.28.29.78.57.57.31 1.39.6 1.52.66.07.03.15.04.24.04.08 0 .16-.01.23-.04.13-.05.94-.34 1.51-.65.51-.28.77-.52.79-.57.02-.04.04-.08.04-.11.01-.07-.01-.13-.05-.16zm-4.57-6c.02.05.36.55.79 1.07.44.54.91 1.05.99 1.12.07.06.16.11.26.11s.19-.05.26-.11c.08-.07.56-.59.99-1.12.43-.53.77-1.02.8-1.08.03-.05.04-.11.04-.17a.33.33 0 0 0-.06-.19c-.04-.05-.46-.51-.94-.95-.45-.42-.93-.79-.95-.79a.265.265 0 0 0-.14-.05c-.06 0-.11.02-.15.05 0 .01-.49.38-.94.79-.48.44-.9.9-.93.95-.04.06-.06.13-.06.19 0 .08.01.13.04.18zm-.07 4.35c.49-.4.9-.77.95-.83.04-.05.06-.11.07-.17.01-.03.01-.05.01-.06 0-.09-.04-.18-.1-.25-.06-.08-1.68-2.09-1.73-2.15a.187.187 0 0 0-.14-.05c-.05 0-.1.02-.14.06-.05.05-.58.67-.99 1.22-.3.42-.51.8-.54.84-.03.07-.06.15-.06.23 0 .04.01.07.01.1.02.09.2.54.45.99.26.46.58.88.66.95.05.05.12.06.19.07.07 0 .13-.02.18-.05.05-.04.64-.46 1.18-.9zm4.24 0c-.49-.4-.9-.77-.95-.83a.363.363 0 0 1-.07-.17v-.06c0-.09.04-.18.09-.25.06-.08 1.68-2.09 1.73-2.15.04-.04.09-.05.14-.05.05 0 .1.02.13.06.06.05.59.67.99 1.22.31.42.51.8.54.84.05.07.07.15.07.23 0 .04-.01.07-.01.1-.02.09-.2.54-.45.99-.26.46-.59.88-.66.95-.05.05-.12.06-.19.07-.07 0-.13-.02-.18-.05-.05-.04-.65-.46-1.18-.9z" fill="#185091"/><path class="st0" d="M105.56 52.46c-.48-.41-1.15-.61-2.01-.61-.77 0-1.44.06-2 .17v-3.13h-.83v7.4l.06.02c.23.09.56.17 1 .24.43.07.82.11 1.15.11 1.02 0 1.84-.22 2.44-.66.61-.44.92-1.06.92-1.83 0-.72-.24-1.29-.73-1.71zm-.54 3.11c-.44.33-1.07.49-1.91.49-.54 0-1.05-.06-1.51-.19v-3.1a9.71 9.71 0 0 1 1.98-.19c.7 0 1.23.15 1.58.44.35.29.52.69.52 1.2 0 .57-.22 1.02-.66 1.35z"/></svg>