<?xml version="1.0" encoding="UTF-8" standalone="no"?>
<!-- Created with Inkscape (http://www.inkscape.org/) -->

<svg
   width="89.47538mm"
   height="16.296925mm"
   viewBox="0 0 89.475382 16.296925"
   version="1.1"
   id="svg1"
   xml:space="preserve"
   xmlns="http://www.w3.org/2000/svg"
   xmlns:svg="http://www.w3.org/2000/svg"><defs
     id="defs1" /><g
     id="g1"
     transform="matrix(0.26458333,0,0,0.26458334,-158.26091,-151.29995)"><g
       id="g3"
       transform="translate(-131.52718,-4.3870034)"><path
         id="path77"
         d="m 739.75066,581.86001 h -9.40534 v -4.48 h 23.97734 v 4.48 h -9.40534 v 24.17866 h -5.16666 v -24.17866"
         style="fill:#231f20;fill-opacity:1;fill-rule:nonzero;stroke:none;stroke-width:0.133333" /><path
         id="path78"
         d="m 739.75066,581.86001 v -0.66667 h -8.73867 v -3.14666 h 22.644 v 3.14666 h -9.40533 v 24.17867 h -3.83334 v -24.17867 h -0.66666 v 0.66667 h -0.66667 v 24.84533 h 6.5 v -24.17866 h 9.40533 v -5.81334 h -25.31066 v 5.81334 h 10.072 v -0.66667 h -0.66667 0.66667"
         style="fill:#231f20;fill-opacity:1;fill-rule:nonzero;stroke:none;stroke-width:0.133333" /><path
         id="path79"
         d="m 762.39999,600.62934 c 0.72667,0.56533 1.89733,1.41333 3.22933,1.41333 1.45334,0 2.26,-0.928 2.86667,-2.50266 l -11.22133,-22.16 h 5.73066 l 6.096,12.796 c 0.928,1.896 1.61467,3.79333 1.61467,3.79333 h 0.08 c 0,0 0.52533,-1.89733 1.17067,-3.75333 l 4.60133,-12.836 h 5.44933 l -8.84,22.644 c -1.21066,3.068 -3.188,6.49866 -7.34533,6.49866 -2.18,0 -3.99733,-0.76666 -5.732,-1.97733 l 2.3,-3.916"
         style="fill:#231f20;fill-opacity:1;fill-rule:nonzero;stroke:none;stroke-width:0.133333" /><path
         id="path80"
         d="m 762.39999,600.62934 -0.40933,0.52667 c 0.75066,0.57333 2.016,1.54 3.63866,1.55333 0.868,0.007 1.63867,-0.30133 2.20667,-0.84 0.57067,-0.53733 0.95867,-1.25333 1.28133,-2.09067 l 0.10667,-0.276 -10.86533,-21.45599 h 4.22666 l 5.916,12.41999 0.001,10e-4 c 0.45333,0.928 0.852,1.864 1.136,2.56533 0.14133,0.35067 0.25466,0.644 0.332,0.84667 0.0773,0.204 0.11733,0.316 0.11733,0.316 l 0.16,0.44 h 0.548 0.508 l 0.13467,-0.488 c 0,-10e-4 0.12933,-0.46667 0.33866,-1.168 0.21067,-0.7 0.50134,-1.63067 0.81867,-2.54534 l -10e-4,0.007 4.44266,-12.39466 h 4.004 l -8.484,21.73466 v -10e-4 c -0.58933,1.49733 -1.36133,3.04933 -2.43333,4.188 -1.08,1.13733 -2.40267,1.88133 -4.292,1.888 -2.01867,-0.003 -3.68,-0.696 -5.35067,-1.85734 l -0.38133,0.54667 0.57467,0.33733 2.3,-3.91466 -0.57467,-0.33867 -0.40933,0.52667 0.40933,-0.52667 -0.57467,-0.33733 -2.61333,4.44666 0.50667,0.35334 c 1.8,1.26 3.77066,2.10133 6.11333,2.09733 2.268,0.008 4.012,-0.964 5.264,-2.30933 1.25867,-1.344 2.08,-3.04134 2.70133,-4.61067 l 9.196,-23.556 h -6.89466 l -4.76134,13.28133 v 0.003 c -0.65466,1.88267 -1.18133,3.78667 -1.184,3.79467 l 0.64267,0.17733 v -0.66667 h -0.08 v 0.66667 l 0.62667,-0.22667 c -0.005,-0.012 -0.696,-1.924 -1.64267,-3.86 l -0.59867,0.29334 0.60134,-0.28667 -6.276,-13.176 h -7.23734 l 11.712,23.128 0.59467,-0.30133 -0.62267,-0.24 c -0.28266,0.73866 -0.60133,1.27333 -0.948,1.59466 -0.35066,0.31734 -0.71066,0.47467 -1.296,0.48134 -1.04133,0.0133 -2.11733,-0.71467 -2.82,-1.272 l -0.59866,-0.46667 -0.38534,0.65467 0.57467,0.33733"
         style="fill:#231f20;fill-opacity:1;fill-rule:nonzero;stroke:none;stroke-width:0.133333" /><path
         id="path81"
         d="m 787.10799,585.21068 v -7.83067 h 17.72 v 28.65866 h -5.208 v -24.17866 h -7.548 v 3.43067 c 0,13.88666 -3.188,20.78799 -11.14,21.07066 v -4.76267 c 4.23733,-0.56533 6.176,-5.288 6.176,-16.38799"
         style="fill:#231f20;fill-opacity:1;fill-rule:nonzero;stroke:none;stroke-width:0.133333" /><path
         id="path82"
         d="m 787.10799,585.21068 h 0.66667 v -7.164 h 16.38666 v 27.32533 h -3.87466 v -24.17867 h -8.88134 v 4.09734 c 0.004,6.89333 -0.804,12.00666 -2.51466,15.33333 -0.85467,1.66533 -1.91867,2.884 -3.22267,3.71733 -1.304,0.83067 -2.86533,1.28533 -4.76,1.35467 l 0.024,0.66533 h 0.66667 v -4.76267 h -0.66667 l 0.088,0.66134 c 1.172,-0.15467 2.23333,-0.616 3.10933,-1.40267 1.31734,-1.18267 2.20934,-3.02667 2.792,-5.58533 0.58,-2.56267 0.852,-5.86934 0.85334,-10.06133 h -0.66667 -0.66667 c 0.003,5.51066 -0.49066,9.40799 -1.45466,11.90533 -0.48,1.25066 -1.06934,2.14266 -1.74667,2.748 -0.67867,0.604 -1.45067,0.94533 -2.396,1.07333 l -0.57867,0.0773 v 6.03734 l 0.68934,-0.024 c 2.08133,-0.0733 3.90133,-0.58667 5.43066,-1.56267 2.30134,-1.46667 3.892,-3.93333 4.89734,-7.288 1.008,-3.36 1.45466,-7.64 1.456,-12.88666 v -2.764 h 6.21466 v 24.17866 h 6.54134 v -29.992 h -19.05334 v 8.49734 h 0.66667"
         style="fill:#231f20;fill-opacity:1;fill-rule:nonzero;stroke:none;stroke-width:0.133333" /><path
         id="path83"
         d="m 821.74399,601.55867 c 2.86666,0 4.52133,-1.85733 4.52133,-4.764 0,-2.94666 -1.736,-4.884 -4.60133,-4.884 h -4.68267 v 9.648 z m -9.96934,-24.17866 h 5.20667 v 10.05066 h 5.61067 c 5.20666,0 8.96133,3.63334 8.96133,9.364 0,5.49067 -3.63333,9.244 -8.88133,9.244 h -10.89734 v -28.65866"
         style="fill:#231f20;fill-opacity:1;fill-rule:nonzero;stroke:none;stroke-width:0.133333" /><path
         id="path84"
         d="m 821.74399,601.55867 v 0.66667 c 1.57333,0.004 2.912,-0.524 3.82266,-1.504 0.912,-0.97733 1.36667,-2.35067 1.36534,-3.92667 10e-4,-1.6 -0.476,-3.00133 -1.40534,-4 -0.92533,-1.00266 -2.28266,-1.55466 -3.86266,-1.55066 h -5.34934 v 10.98133 h 5.42934 v -0.66667 -0.66666 h -4.096 v -8.31467 h 4.016 c 1.28533,0.005 2.228,0.42133 2.88666,1.124 0.656,0.70667 1.04667,1.748 1.048,3.09333 -10e-4,1.33067 -0.37466,2.34 -1.00666,3.01734 -0.63334,0.67466 -1.55467,1.07466 -2.848,1.08 z m -9.96934,-24.17866 v 0.66667 h 4.54 v 10.05066 h 6.27734 c 2.44933,0.003 4.5,0.84667 5.956,2.332 1.45466,1.48933 2.336,3.644 2.33866,6.36533 -0.003,2.6 -0.85466,4.72934 -2.28666,6.21867 -1.43467,1.48667 -3.46134,2.356 -5.928,2.35867 h -10.23067 v -27.992 h -0.66667 v 0.66667 -0.66667 h -0.66666 v 29.32533 h 11.564 c 2.78266,0.003 5.19466,-1.00533 6.88933,-2.768 1.696,-1.76 2.66,-4.252 2.65867,-7.14267 10e-4,-3.00933 -0.99334,-5.536 -2.71867,-7.29733 -1.72267,-1.76267 -4.152,-2.736 -6.90933,-2.73333 h -4.944 v -10.05067 h -6.54 v 0.66667 h 0.66666"
         style="fill:#231f20;fill-opacity:1;fill-rule:nonzero;stroke:none;stroke-width:0.133333" /><path
         id="path85"
         d="m 849.59999,576.89601 c 3.75333,0 7.78933,1.21067 10.57466,3.91467 l -2.50266,3.87466 c -2.01734,-1.73466 -5.04534,-3.02666 -7.83067,-3.02666 -6.296,0 -9.60667,4.56133 -9.60667,9.84933 0,5.368 3.432,10.252 9.648,10.252 3.06667,0 6.13467,-1.49334 8.31467,-3.63334 l 2.74533,3.75467 c -2.46266,2.50267 -6.136,4.64133 -11.26266,4.64133 -9.00134,0 -14.81334,-6.49866 -14.81334,-14.93466 0,-8.31467 6.09467,-14.692 14.73334,-14.692"
         style="fill:#231f20;fill-opacity:1;fill-rule:nonzero;stroke:none;stroke-width:0.133333" /><path
         id="path86"
         d="m 849.59999,576.89601 v 0.66667 c 3.61466,-0.004 7.492,1.176 10.11066,3.72666 l 0.464,-0.47866 -0.56,-0.36134 -2.50266,3.87467 0.56,0.36133 0.43466,-0.50533 c -2.14533,-1.836 -5.27466,-3.18 -8.26533,-3.188 -3.308,-0.005 -5.92133,1.216 -7.66133,3.16267 -1.74134,1.94533 -2.612,4.57199 -2.612,7.35333 10e-4,2.824 0.90133,5.54266 2.65466,7.57466 1.75067,2.03467 4.376,3.34934 7.66,3.344 3.28667,-0.005 6.48934,-1.57866 8.78134,-3.824 l -0.46667,-0.476 -0.53867,0.39467 2.74534,3.75333 0.53866,-0.39333 -0.476,-0.468 c -2.36933,2.40133 -5.852,4.43867 -10.78666,4.44267 -4.34,-0.003 -7.85067,-1.556 -10.30134,-4.09867 -2.44933,-2.54533 -3.844,-6.10267 -3.84533,-10.16933 10e-4,-3.99467 1.45867,-7.48933 3.93467,-9.996 2.47733,-2.504 5.97733,-4.028 10.132,-4.02933 v -0.66667 -0.66667 c -4.484,-0.003 -8.35067,1.66267 -11.08,4.42534 -2.732,2.76133 -4.32134,6.61333 -4.32,10.93333 -10e-4,4.37066 1.50933,8.28 4.21733,11.09333 2.70533,2.81467 6.60267,4.512 11.26267,4.508 5.31733,0.004 9.18266,-2.236 11.73733,-4.84 l 0.39733,-0.404 -3.53466,-4.83333 -0.54934,0.54 c -2.068,2.03333 -5,3.44666 -7.848,3.44133 -2.93333,-0.005 -5.132,-1.132 -6.65066,-2.88267 -1.51467,-1.75066 -2.33067,-4.15866 -2.33067,-6.70266 0,-2.508 0.78533,-4.80534 2.272,-6.46267 1.49067,-1.656 3.68,-2.71466 6.668,-2.72 2.58,-0.009 5.50533,1.23067 7.396,2.86534 l 0.58,0.49866 3.21467,-4.976 -0.392,-0.38133 c -2.952,-2.85867 -7.148,-4.1 -11.04,-4.10267 v 0.66667"
         style="fill:#231f20;fill-opacity:1;fill-rule:nonzero;stroke:none;stroke-width:0.133333" /><path
         id="path87"
         d="m 865.42665,577.38001 h 5.20667 v 11.66533 h 3.71333 l 6.74134,-11.66533 h 5.65066 l -8.11333,13.64266 v 0.0813 l 8.59733,14.93466 h -5.892 l -6.984,-12.51333 h -3.71333 v 12.51333 h -5.20667 v -28.65866"
         style="fill:#231f20;fill-opacity:1;fill-rule:nonzero;stroke:none;stroke-width:0.133333" /><path
         id="path88"
         d="m 865.42665,577.38001 v 0.66667 h 4.54 v 11.66533 h 4.76534 l 6.74,-11.66533 h 4.09466 l -7.608,12.79333 v 0.264 0.17733 l 8.112,14.09067 h -4.34933 l -6.98267,-12.51334 h -4.772 v 12.51334 h -3.87333 v -27.992 h -0.66667 v 0.66667 -0.66667 h -0.66666 v 29.32533 h 6.54 v -12.51333 h 2.656 l 6.98266,12.51333 h 7.43734 l -9.172,-15.93467 -0.57867,0.33334 h 0.66667 v -0.0813 h -0.66667 l 0.57333,0.34134 8.712,-14.65067 h -7.208 l -6.74,11.66533 h -2.66266 v -11.66533 h -6.54 v 0.66667 h 0.66666"
         style="fill:#231f20;fill-opacity:1;fill-rule:nonzero;stroke:none;stroke-width:0.133333" /><path
         id="path89"
         d="m 891.18265,577.38001 h 5.20667 v 16.54933 c 0,1.69467 -0.28133,4.44 -0.28133,4.44 h 0.08 c 0,0 1.372,-2.78533 2.42266,-4.48 l 10.81734,-16.50933 h 5.16666 v 28.65866 h -5.16666 v -16.50933 c 0,-1.69467 0.28266,-4.44 0.28266,-4.44 h -0.0813 c 0,0 -1.332,2.74533 -2.38133,4.44 l -10.89867,16.50933 h -5.16667 v -28.65866"
         style="fill:#231f20;fill-opacity:1;fill-rule:nonzero;stroke:none;stroke-width:0.133333" /><path
         id="path90"
         d="m 891.18265,577.38001 v 0.66667 h 4.54 v 15.88266 c 10e-4,0.812 -0.068,1.91467 -0.13866,2.804 -0.0693,0.88933 -0.14,1.56667 -0.14,1.568 l -0.076,0.73467 h 0.82 0.41466 l 0.184,-0.372 c 0,-10e-4 0.33867,-0.68934 0.80934,-1.59067 0.47066,-0.9 1.072,-2.01333 1.58133,-2.83333 l -0.56667,-0.35067 0.55734,0.36533 10.62,-16.20799 h 4.14 v 27.32533 h -3.83334 v -15.84267 c 0,-0.812 0.0693,-1.91467 0.13867,-2.80267 0.0707,-0.89066 0.14,-1.56799 0.14,-1.56933 l 0.076,-0.73466 h -0.82 -0.41733 l -0.18267,0.376 c 0,10e-4 -0.32933,0.67866 -0.78933,1.56933 -0.46,0.88933 -1.05067,1.99066 -1.55867,2.81066 l 0.56667,0.35067 -0.556,-0.36667 -10.70134,16.20934 h -4.14133 v -27.992 h -0.66667 v 0.66667 -0.66667 h -0.66666 v 29.32533 h 6.192 l 11.10266,-16.81733 0.004,-0.008 c 1.08,-1.74667 2.40934,-4.48933 2.41467,-4.5 l -0.6,-0.29067 v 0.66667 h 0.0813 v -0.66667 l -0.664,-0.068 c 0,0.012 -0.284,2.75067 -0.28533,4.508 v 17.176 h 6.5 v -29.992 h -6.19333 l -11.01867,16.816 -0.007,0.009 c -1.07866,1.744 -2.44666,4.52667 -2.452,4.536 l 0.59734,0.29467 v -0.66667 h -0.08 v 0.66667 l 0.66266,0.068 c 0,-0.0107 0.28534,-2.75067 0.28534,-4.508 v -17.216 h -6.54 v 0.66667 h 0.66666"
         style="fill:#231f20;fill-opacity:1;fill-rule:nonzero;stroke:none;stroke-width:0.133333" /><path
         id="path91"
         d="m 921.58265,577.38001 h 17.15467 v 4.48 h -11.948 v 7.508 h 9.648 v 4.48 h -9.648 v 7.71066 h 12.59467 v 4.48 h -17.80134 v -28.65866"
         style="fill:#231f20;fill-opacity:1;fill-rule:nonzero;stroke:none;stroke-width:0.133333" /><path
         id="path92"
         d="m 921.58265,577.38001 v 0.66667 h 16.488 v 3.14666 h -11.948 v 8.84133 h 9.648 v 3.14667 h -9.648 v 9.044 h 12.59467 v 3.14667 h -16.468 v -27.992 h -0.66667 v 0.66667 -0.66667 h -0.66666 v 29.32533 h 19.13466 v -5.81333 h -12.59466 v -6.37734 h 9.648 v -5.81333 h -9.648 v -6.17466 h 11.948 v -5.81334 h -18.488 v 0.66667 h 0.66666"
         style="fill:#231f20;fill-opacity:1;fill-rule:nonzero;stroke:none;stroke-width:0.133333" /><path
         id="path93"
         d="m 967.76398,601.76001 c 5.24667,0 9.44534,-4.44 9.44534,-10.252 0,-5.57067 -4.19867,-9.84933 -9.44534,-9.84933 -5.248,0 -9.44533,4.27866 -9.44533,9.84933 0,5.812 4.19733,10.252 9.44533,10.252 z m 0,-24.864 c 8.436,0 14.81334,6.41733 14.81334,14.612 0,8.436 -6.37734,15.01466 -14.81334,15.01466 -8.436,0 -14.81466,-6.57866 -14.81466,-15.01466 0,-8.19467 6.37866,-14.612 14.81466,-14.612"
         style="fill:#231f20;fill-opacity:1;fill-rule:nonzero;stroke:none;stroke-width:0.133333" /><path
         id="path94"
         d="m 967.76398,601.76001 v 0.66666 c 2.81334,0.001 5.35734,-1.196 7.17867,-3.16 1.82267,-1.96266 2.93333,-4.692 2.93333,-7.75866 0,-2.95467 -1.116,-5.588 -2.94266,-7.47733 -1.824,-1.89067 -4.36267,-3.04 -7.16934,-3.03867 -2.80666,-0.001 -5.34666,1.148 -7.17066,3.03867 -1.82534,1.88933 -2.94267,4.52266 -2.94134,7.47733 -10e-4,3.06666 1.10934,5.796 2.93334,7.75866 1.82,1.964 4.364,3.16134 7.17866,3.16 v -0.66666 -0.66667 c -4.85066,-10e-4 -8.768,-4.09333 -8.77866,-9.58533 0.009,-5.23067 3.908,-9.17867 8.77866,-9.18267 4.86934,0.004 8.76934,3.952 8.77867,9.18267 -0.012,5.492 -3.92933,9.584 -8.77867,9.58533 z m 0,-24.864 v 0.66667 c 8.08667,0.0107 14.136,6.108 14.14667,13.94533 -0.0133,8.092 -6.07333,14.33866 -14.14667,14.348 -8.07466,-0.009 -14.13466,-6.256 -14.148,-14.348 0.012,-7.83733 6.06134,-13.93467 14.148,-13.94533 v -0.66667 -0.66667 c -4.388,-10e-4 -8.268,1.67334 -11.04,4.42667 -2.77466,2.75067 -4.44133,6.58 -4.44133,10.852 0,4.38666 1.66267,8.31333 4.43467,11.13733 2.77066,2.82533 6.65333,4.54533 11.04666,4.544 4.392,10e-4 8.276,-1.71867 11.04534,-4.544 2.77333,-2.824 4.436,-6.75067 4.43466,-11.13733 0.001,-4.272 -1.66666,-8.10133 -4.44,-10.852 -2.772,-2.75333 -6.652,-4.428 -11.04,-4.42667 v 0.66667"
         style="fill:#231f20;fill-opacity:1;fill-rule:nonzero;stroke:none;stroke-width:0.133333" /><path
         id="path95"
         d="m 987.83065,577.38001 h 5.20667 v 11.66533 h 3.71333 l 6.74135,-11.66533 h 5.6506 l -8.1133,13.64266 v 0.0813 l 8.5973,14.93466 h -5.8933 l -6.98265,-12.51333 h -3.71333 v 12.51333 h -5.20667 v -28.65866"
         style="fill:#231f20;fill-opacity:1;fill-rule:nonzero;stroke:none;stroke-width:0.133333" /><path
         id="path96"
         d="m 987.83065,577.38001 v 0.66667 h 4.54 v 11.66533 h 4.76533 l 6.74002,-11.66533 h 4.0946 l -7.608,12.79333 v 0.264 0.17866 l 8.1107,14.08934 h -4.348 l -6.98265,-12.51334 h -4.772 v 12.51334 h -3.87467 l 10e-4,-27.992 h -0.66667 v 0.66667 -0.66667 h -0.66667 v 29.32533 h 6.54 v -12.51333 h 2.65467 l 6.98399,12.51333 h 7.4373 l -9.1733,-15.93467 -0.5773,0.33334 h 0.6666 v -0.0813 h -0.6666 l 0.5733,0.34134 8.712,-14.65067 h -7.208 l -6.74132,11.66533 h -2.66134 v -11.66533 h -6.54 v 0.66667 h 0.66667"
         style="fill:#231f20;fill-opacity:1;fill-rule:nonzero;stroke:none;stroke-width:0.133333" /><path
         id="path97"
         d="m 1014.0307,577.38001 h 5.2066 v 12.14933 h 13.1187 v -12.14933 h 5.1666 v 28.65866 h -5.1666 v -12.028 h -13.1187 v 12.028 h -5.2066 v -28.65866"
         style="fill:#231f20;fill-opacity:1;fill-rule:nonzero;stroke:none;stroke-width:0.133333" /><path
         id="path98"
         d="m 1014.0307,577.38001 v 0.66667 h 4.5399 v 12.14933 h 14.452 v -12.14933 h 3.8334 v 27.32533 h -3.8334 v -12.028 h -14.452 v 12.028 h -3.8733 v -27.992 h -0.6666 v 0.66667 -0.66667 h -0.6667 v 29.32533 h 6.54 v -12.028 h 11.7853 v 12.028 h 6.5 v -29.992 h -6.5 v 12.14933 h -11.7853 v -12.14933 h -6.54 v 0.66667 h 0.6667"
         style="fill:#231f20;fill-opacity:1;fill-rule:nonzero;stroke:none;stroke-width:0.133333" /><path
         id="path99"
         d="m 1057.832,594.45467 -2.544,-7.66933 c -0.484,-1.61466 -1.1293,-4.44 -1.1293,-4.44 h -0.081 c 0,0 -0.6454,2.82534 -1.1307,4.44 l -2.5827,7.66933 z m -6.4587,-17.07466 h 5.4894 l 10.0506,28.65866 h -5.328 l -2.4626,-7.34666 h -10.0507 l -2.4213,7.34666 h -5.328 l 10.0506,-28.65866"
         style="fill:#231f20;fill-opacity:1;fill-rule:nonzero;stroke:none;stroke-width:0.133333" /><path
         id="path100"
         d="m 1057.832,594.45467 0.632,-0.21066 -2.5427,-7.66934 -0.6333,0.21067 0.6387,-0.192 c -0.2347,-0.784 -0.5174,-1.89066 -0.7374,-2.792 -0.2213,-0.904 -0.3813,-1.604 -0.3813,-1.60533 l -0.1187,-0.51733 h -0.612 -0.532 l -0.1173,0.51733 c 0,10e-4 -0.1613,0.70133 -0.3813,1.60533 -0.2214,0.90134 -0.5027,2.008 -0.7374,2.792 l 0.6373,0.192 -0.6306,-0.21333 -2.88,8.54933 h 9.3186 l -0.2906,-0.87733 -0.632,0.21066 v -0.66666 h -6.54 l 2.2907,-6.8 v -0.012 c 0.496,-1.65467 1.14,-4.476 1.1426,-4.48267 l -0.6506,-0.148 v 0.66534 h 0.081 v -0.66534 l -0.6507,0.148 c 0,0.007 0.6453,2.828 1.1413,4.48267 v 0.0107 l 2.5454,7.67734 0.6333,-0.20934 v -0.66666 z m -6.4587,-17.07466 v 0.66667 h 5.016 l 9.584,27.32533 h -3.908 l -2.4627,-7.34667 h -11.0133 l -2.4213,7.34667 h -3.9054 l 9.7401,-27.772 -0.6294,-0.22 v 0.66667 -0.66667 l -0.6293,-0.22133 -10.3627,29.54666 h 6.7507 l 2.4227,-7.34667 h 9.088 l 2.4626,7.34667 h 6.748 l -10.5186,-29.992 H 1050.9 l -0.156,0.44534 0.6293,0.22133"
         style="fill:#231f20;fill-opacity:1;fill-rule:nonzero;stroke:none;stroke-width:0.133333" /><path
         id="path101"
         d="m 736.96932,621.06801 c 1.52667,0 3.212,0.53066 4.25334,1.664 l -0.80934,1.17866 c -0.808,-0.832 -2.10266,-1.43333 -3.39733,-1.43333 -2.54267,0 -4.52933,1.91867 -4.52933,4.692 0,2.72667 1.98666,4.64533 4.57466,4.64533 1.34134,0 2.79734,-0.57733 3.72134,-1.59466 l 0.71733,1.17866 c -1.01733,1.13334 -2.75067,1.84934 -4.53067,1.84934 -3.444,0 -6.10133,-2.47334 -6.10133,-6.07867 0,-3.58267 2.68133,-6.10133 6.10133,-6.10133"
         style="fill:#918f90;fill-opacity:1;fill-rule:nonzero;stroke:none;stroke-width:0.133333" /><path
         id="path102"
         d="m 748.41466,631.74534 c 1.91866,0 2.79733,-0.80933 2.79733,-2.05733 0,-1.364 -1.01733,-2.10267 -2.82133,-2.10267 h -2.63334 v 4.16 z m -0.18534,-5.36267 c 1.572,0 2.38134,-0.73866 2.38134,-1.98666 0,-1.248 -0.83334,-1.84934 -2.47334,-1.84934 h -2.38 v 3.836 z m -4.044,-5.03733 h 4.20534 c 2.35866,0 3.83733,1.04 3.83733,2.95867 0,1.20133 -0.624,2.14933 -1.756,2.56533 v 0.0453 c 1.50133,0.3 2.35733,1.43334 2.35733,2.796 0,2.012 -1.596,3.26 -4.20666,3.26 h -4.43734 v -11.62533"
         style="fill:#918f90;fill-opacity:1;fill-rule:nonzero;stroke:none;stroke-width:0.133333" /><path
         id="path103"
         d="m 764.04266,625.96801 c -0.0933,-2.428 -1.572,-3.60534 -3.30667,-3.60534 -1.94,0 -3.62667,1.27067 -3.99733,3.60534 z m -3.26,-4.9 c 3.21333,0 4.85466,2.472 4.85466,5.36133 0,0.25467 -0.024,0.532 -0.0467,0.78533 h -8.92267 c 0.0707,2.95867 2.10533,4.6 4.508,4.6 1.27067,0 2.58933,-0.532 3.53733,-1.38666 l 0.716,1.20133 c -1.08666,0.99467 -2.77333,1.61867 -4.3,1.61867 -3.46533,0 -6.10133,-2.496 -6.10133,-6.07867 0,-3.81333 2.612,-6.10133 5.75467,-6.10133"
         style="fill:#918f90;fill-opacity:1;fill-rule:nonzero;stroke:none;stroke-width:0.133333" /><path
         id="path104"
         d="m 771.32799,622.73201 h -4.23067 v -1.38667 h 10.05334 v 1.38667 h -4.25334 v 10.23866 h -1.56933 v -10.23866"
         style="fill:#918f90;fill-opacity:1;fill-rule:nonzero;stroke:none;stroke-width:0.133333" /><path
         id="path105"
         d="m 784.41066,631.81467 c 2.496,0 4.53066,-1.988 4.53066,-4.71466 0,-2.63467 -2.03466,-4.62267 -4.53066,-4.62267 -2.496,0 -4.50667,1.988 -4.50667,4.62267 0,2.72666 2.01067,4.71466 4.50667,4.71466 z m 0,-10.74666 c 3.39733,0 6.148,2.588 6.148,6.032 0,3.51333 -2.75067,6.148 -6.148,6.148 -3.39734,0 -6.12534,-2.63467 -6.12534,-6.148 0,-3.444 2.728,-6.032 6.12534,-6.032"
         style="fill:#918f90;fill-opacity:1;fill-rule:nonzero;stroke:none;stroke-width:0.133333" /><path
         id="path106"
         d="m 793.49999,621.34534 h 9.728 v 11.62533 h -1.56933 v -10.23866 h -6.588 v 10.23866 h -1.57067 v -11.62533"
         style="fill:#918f90;fill-opacity:1;fill-rule:nonzero;stroke:none;stroke-width:0.133333" /><path
         id="path107"
         d="m 812.20132,631.83734 c 2.05733,0 3.76667,-1.70933 3.76667,-4.668 0,-2.84267 -1.524,-4.66933 -3.69734,-4.66933 -1.94,0 -3.76799,1.38666 -3.76799,4.692 0,2.33466 1.31866,4.64533 3.69866,4.64533 z m -5.22266,-10.492 h 1.50266 v 1.224 c 0,0.50933 -0.0707,0.90267 -0.0707,0.90267 h 0.0467 c 0.716,-1.50267 2.24267,-2.404 4.044,-2.404 3.144,0 5.06133,2.496 5.06133,6.07866 0,3.69734 -2.172,6.10134 -5.19866,6.10134 -1.64134,0 -3.07467,-0.856 -3.83733,-2.312 h -0.0453 c 0,0 0.0693,0.416 0.0693,1.01733 v 5.64 h -1.572 v -16.248"
         style="fill:#918f90;fill-opacity:1;fill-rule:nonzero;stroke:none;stroke-width:0.133333" /><path
         id="path108"
         d="m 825.93465,631.81467 c 2.496,0 4.52934,-1.988 4.52934,-4.71466 0,-2.63467 -2.03334,-4.62267 -4.52934,-4.62267 -2.496,0 -4.50666,1.988 -4.50666,4.62267 0,2.72666 2.01066,4.71466 4.50666,4.71466 z m 0,-10.74666 c 3.39734,0 6.148,2.588 6.148,6.032 0,3.51333 -2.75066,6.148 -6.148,6.148 -3.39733,0 -6.12533,-2.63467 -6.12533,-6.148 0,-3.444 2.728,-6.032 6.12533,-6.032"
         style="fill:#918f90;fill-opacity:1;fill-rule:nonzero;stroke:none;stroke-width:0.133333" /><path
         id="path109"
         d="m 834.37732,630.47467 c 0.46,0.48534 1.548,1.432 3.12,1.432 1.408,0 2.796,-0.716 2.796,-2.264 0,-1.31866 -0.97067,-2.05733 -2.82,-2.05733 h -1.41067 v -1.248 h 1.22534 c 1.572,0 2.58933,-0.624 2.58933,-1.964 0,-1.31867 -0.972,-1.96533 -2.404,-1.96533 -1.13333,0 -2.05733,0.416 -2.84267,1.04 l -0.69333,-1.10934 c 0.80933,-0.67066 2.08,-1.27066 3.768,-1.27066 2.148,0 3.78933,1.04 3.78933,3.12 0,1.456 -0.78533,2.26533 -1.77866,2.65733 v 0.0467 c 1.27066,0.32266 2.19466,1.248 2.19466,2.796 0,2.35733 -2.08,3.56 -4.32133,3.56 -1.82667,0 -3.19067,-0.856 -4.04533,-1.688 l 0.83333,-1.08534"
         style="fill:#918f90;fill-opacity:1;fill-rule:nonzero;stroke:none;stroke-width:0.133333" /><path
         id="path110"
         d="m 850.09599,631.83734 c 2.05733,0 3.768,-1.70933 3.768,-4.668 0,-2.84267 -1.52667,-4.66933 -3.69734,-4.66933 -1.944,0 -3.76933,1.38666 -3.76933,4.692 0,2.33466 1.31867,4.64533 3.69867,4.64533 z m -5.22267,-10.492 h 1.50133 v 1.224 c 0,0.50933 -0.0693,0.90267 -0.0693,0.90267 h 0.0467 c 0.716,-1.50267 2.24133,-2.404 4.044,-2.404 3.144,0 5.06133,2.496 5.06133,6.07866 0,3.69734 -2.172,6.10134 -5.2,6.10134 -1.64133,0 -3.07333,-0.856 -3.836,-2.312 h -0.0467 c 0,0 0.0693,0.416 0.0693,1.01733 v 5.64 h -1.57067 v -16.248"
         style="fill:#918f90;fill-opacity:1;fill-rule:nonzero;stroke:none;stroke-width:0.133333" /><path
         id="path111"
         d="m 861.67865,631.92934 c 2.24267,0 3.56,-2.31067 3.56,-4.344 v -0.532 h -0.67066 c -1.80267,0 -5.50134,0.0693 -5.50134,2.65733 0,1.08667 0.87867,2.21867 2.612,2.21867 z m 2.86667,-6.124 h 0.69333 v -0.32267 c 0,-2.24266 -1.22533,-3.00533 -2.86533,-3.00533 -1.17867,0 -2.35867,0.416 -3.30667,1.10933 l -0.716,-1.20133 c 0.92534,-0.78667 2.56534,-1.31733 4.11467,-1.31733 2.79733,0 4.34533,1.548 4.34533,4.46 v 7.44266 h -1.50266 v -1.364 c 0,-0.57733 0.0693,-0.97066 0.0693,-0.97066 h -0.0453 c -0.60267,1.40933 -2.05734,2.612 -3.93067,2.612 -1.964,0 -3.928,-1.156 -3.928,-3.39734 0,-3.81333 4.85333,-4.04533 7.072,-4.04533"
         style="fill:#918f90;fill-opacity:1;fill-rule:nonzero;stroke:none;stroke-width:0.133333" /><path
         id="path112"
         d="m 869.65732,625.04267 v -3.69733 h 1.548 v 3.536 c 0,1.224 0.36933,2.42667 2.63467,2.42667 1.29466,0 2.38133,-0.55467 2.88933,-0.948 v -5.01467 h 1.572 v 11.62533 h -1.572 v -4.41466 c 0,-0.34667 0.0467,-0.73867 0.0467,-0.73867 h -0.0467 c -0.78533,0.484 -2.12533,0.9 -3.16667,0.9 -2.704,0 -3.90533,-1.40933 -3.90533,-3.67467"
         style="fill:#918f90;fill-opacity:1;fill-rule:nonzero;stroke:none;stroke-width:0.133333" /><path
         id="path113"
         d="m 882.04932,621.34534 h 1.57067 v 4.96933 h 6.79466 v -4.96933 h 1.572 v 11.62533 h -1.572 v -5.26933 h -6.79466 v 5.26933 h -1.57067 v -11.62533"
         style="fill:#918f90;fill-opacity:1;fill-rule:nonzero;stroke:none;stroke-width:0.133333" /><path
         id="path114"
         d="m 905.83465,621.34534 h 1.57067 v 11.62533 h -1.57067 z m -6.21733,10.37733 c 1.872,0 2.63467,-0.948 2.63467,-2.33466 0,-1.40934 -0.78534,-2.35734 -2.612,-2.35734 h -2.33334 v 4.692 z m -3.88267,-10.37733 h 1.572 v 4.43733 h 2.496 c 2.08,0 4.068,0.87734 4.068,3.628 0,2.104 -1.31733,3.56 -4.11466,3.56 h -4.02134 v -11.62533"
         style="fill:#918f90;fill-opacity:1;fill-rule:nonzero;stroke:none;stroke-width:0.133333" /><path
         id="path115"
         d="m 919.38399,625.96801 c -0.0933,-2.428 -1.572,-3.60534 -3.30667,-3.60534 -1.94,0 -3.628,1.27067 -3.99733,3.60534 z m -3.26,-4.9 c 3.212,0 4.85466,2.472 4.85466,5.36133 0,0.25467 -0.024,0.532 -0.0467,0.78533 h -8.92267 c 0.0707,2.95867 2.104,4.6 4.508,4.6 1.27067,0 2.58933,-0.532 3.53733,-1.38666 l 0.716,1.20133 c -1.08666,0.99467 -2.77333,1.61867 -4.3,1.61867 -3.46666,0 -6.10133,-2.496 -6.10133,-6.07867 0,-3.81333 2.612,-6.10133 5.75467,-6.10133"
         style="fill:#918f90;fill-opacity:1;fill-rule:nonzero;stroke:none;stroke-width:0.133333" /><path
         id="path116"
         d="m 929.72132,621.34534 h 1.57067 v 4.92267 h 1.84933 l 3.48933,-4.92267 h 1.84934 l -4.044,5.524 v 0.0453 l 4.50666,6.056 h -1.91866 l -3.86,-5.316 h -1.872 v 5.316 h -1.57067 v -11.62533"
         style="fill:#918f90;fill-opacity:1;fill-rule:nonzero;stroke:none;stroke-width:0.133333" /><path
         id="path117"
         d="m 946.01732,631.81467 c 2.496,0 4.53066,-1.988 4.53066,-4.71466 0,-2.63467 -2.03466,-4.62267 -4.53066,-4.62267 -2.496,0 -4.50667,1.988 -4.50667,4.62267 0,2.72666 2.01067,4.71466 4.50667,4.71466 z m 0,-10.74666 c 3.39733,0 6.14933,2.588 6.14933,6.032 0,3.51333 -2.752,6.148 -6.14933,6.148 -3.39734,0 -6.12533,-2.63467 -6.12533,-6.148 0,-3.444 2.72799,-6.032 6.12533,-6.032"
         style="fill:#918f90;fill-opacity:1;fill-rule:nonzero;stroke:none;stroke-width:0.133333" /><path
         id="path118"
         d="m 955.10665,621.34534 h 1.57067 v 4.96933 h 6.79466 v -4.96933 h 1.572 v 11.62533 h -1.572 v -5.26933 h -6.79466 v 5.26933 h -1.57067 v -11.62533"
         style="fill:#918f90;fill-opacity:1;fill-rule:nonzero;stroke:none;stroke-width:0.133333" /><path
         id="path119"
         d="m 974.10798,621.06801 c 1.52534,0 3.212,0.53066 4.252,1.664 l -0.808,1.17866 c -0.80933,-0.832 -2.104,-1.43333 -3.39733,-1.43333 -2.544,0 -4.53067,1.91867 -4.53067,4.692 0,2.72667 1.98667,4.64533 4.576,4.64533 1.34134,0 2.79734,-0.57733 3.72134,-1.59466 l 0.716,1.17866 c -1.01734,1.13334 -2.74934,1.84934 -4.52934,1.84934 -3.444,0 -6.10266,-2.47334 -6.10266,-6.07867 0,-3.58267 2.68133,-6.10133 6.10266,-6.10133"
         style="fill:#918f90;fill-opacity:1;fill-rule:nonzero;stroke:none;stroke-width:0.133333" /><path
         id="path120"
         d="m 984.21332,622.73201 h -4.23067 v -1.38667 h 10.05333 v 1.38667 h -4.25333 v 10.23866 h -1.56933 v -10.23866"
         style="fill:#918f90;fill-opacity:1;fill-rule:nonzero;stroke:none;stroke-width:0.133333" /><path
         id="path121"
         d="m 997.66665,631.83734 c 2.056,0 3.76805,-1.70933 3.76805,-4.668 0,-2.84267 -1.52672,-4.66933 -3.69872,-4.66933 -1.94266,0 -3.768,1.38666 -3.768,4.692 0,2.33466 1.31734,4.64533 3.69867,4.64533 z m -5.22267,-10.492 h 1.5 v 1.224 c 0,0.50933 -0.068,0.90267 -0.068,0.90267 h 0.0467 c 0.716,-1.50267 2.24133,-2.404 4.044,-2.404 3.14402,0 5.06132,2.496 5.06132,6.07866 0,3.69734 -2.172,6.10134 -5.19999,6.10134 -1.64133,0 -3.07333,-0.856 -3.836,-2.312 h -0.048 c 0,0 0.0707,0.416 0.0707,1.01733 v 5.64 h -1.57067 v -16.248"
         style="fill:#918f90;fill-opacity:1;fill-rule:nonzero;stroke:none;stroke-width:0.133333" /><path
         id="path122"
         d="m 1006.268,636.41467 c 1.016,0 1.756,-0.832 2.2186,-1.896 l 0.692,-1.664 -4.8306,-11.50933 h 1.7346 l 3.3974,8.48133 c 0.2306,0.57867 0.4386,1.22534 0.4386,1.22534 h 0.047 c 0,0 0.1614,-0.64667 0.3934,-1.22534 l 3.3506,-8.48133 h 1.6867 l -5.7307,14.052 c -0.6013,1.47867 -1.7799,2.42667 -3.3293,2.42667 -1.2013,0 -2.0573,-0.69334 -2.0573,-0.69334 l 0.6026,-1.248 c 0,0 0.6467,0.532 1.3867,0.532"
         style="fill:#918f90;fill-opacity:1;fill-rule:nonzero;stroke:none;stroke-width:0.133333" /><path
         id="path123"
         d="m 1017.8733,621.34534 h 1.5707 v 4.92267 h 1.8493 l 3.4894,-4.92267 h 1.8493 l -4.044,5.524 v 0.0453 l 4.5067,6.056 h -1.9187 l -3.8587,-5.316 h -1.8733 v 5.316 h -1.5707 v -11.62533"
         style="fill:#918f90;fill-opacity:1;fill-rule:nonzero;stroke:none;stroke-width:0.133333" /><path
         id="path124"
         d="m 1029.3173,621.34534 h 1.572 v 10.23867 h 6.424 v -10.23867 h 1.5947 v 10.23867 h 1.6173 v 4.16 h -1.4786 v -2.77334 h -9.7294 v -11.62533"
         style="fill:#918f90;fill-opacity:1;fill-rule:nonzero;stroke:none;stroke-width:0.133333" /><path
         id="path125"
         d="m 1043.096,621.34534 h 1.524 v 7.62667 c 0,0.716 -0.045,1.68666 -0.068,1.73333 h 0.047 c 0.045,-0.092 0.7387,-1.08667 1.2,-1.73333 l 5.7093,-7.62667 h 1.5014 v 11.62533 h -1.548 v -7.65066 c 0,-0.66934 0.069,-1.59467 0.069,-1.68667 h -0.045 c -0.024,0.116 -0.74,1.04 -1.1787,1.68667 l -5.708,7.65066 h -1.5027 v -11.62533"
         style="fill:#918f90;fill-opacity:1;fill-rule:nonzero;stroke:none;stroke-width:0.133333" /><path
         id="path126"
         d="m 1056.76,621.34534 h 1.524 v 7.62667 c 0,0.716 -0.045,1.68666 -0.068,1.73333 h 0.047 c 0.045,-0.092 0.7387,-1.08667 1.2,-1.73333 l 5.7093,-7.62667 h 1.5014 v 11.62533 h -1.548 v -7.65066 c 0,-0.66934 0.069,-1.59467 0.069,-1.68667 h -0.045 c -0.024,0.116 -0.74,1.04 -1.1787,1.68667 l -5.708,7.65066 h -1.5027 v -11.62533"
         style="fill:#918f90;fill-opacity:1;fill-rule:nonzero;stroke:none;stroke-width:0.133333" /></g></g></svg>
