<?xml version="1.0" encoding="UTF-8" standalone="no"?>
<!-- Created with Inkscape (http://www.inkscape.org/) -->

<svg
   width="408.5257mm"
   height="61.381798mm"
   viewBox="0 0 408.52569 61.381798"
   version="1.1"
   id="svg1"
   xml:space="preserve"
   xmlns:inkscape="http://www.inkscape.org/namespaces/inkscape"
   xmlns:sodipodi="http://sodipodi.sourceforge.net/DTD/sodipodi-0.dtd"
   xmlns="http://www.w3.org/2000/svg"
   xmlns:svg="http://www.w3.org/2000/svg"><sodipodi:namedview
     id="namedview1"
     pagecolor="#ffffff"
     bordercolor="#000000"
     borderopacity="0.25"
     inkscape:showpageshadow="2"
     inkscape:pageopacity="0.0"
     inkscape:pagecheckerboard="0"
     inkscape:deskcolor="#d1d1d1"
     inkscape:document-units="mm"><inkscape:page
       x="1.3196559e-05"
       y="1.2903921e-05"
       width="408.52573"
       height="61.381802"
       id="page3"
       margin="0"
       bleed="0" /></sodipodi:namedview><defs
     id="defs1" /><g
     id="g1"
     inkscape:groupmode="layer"
     inkscape:label="1"
     transform="matrix(0.26458333,0,0,0.26458335,-149.87909,-248.87417)"><g
       id="g2"><path
         id="path17"
         d="m 618.51598,1106.6134 c -0.33333,0.36 -0.37466,0.84 -0.10666,1.08 l 5.604,5.16 c 0.26266,0.2533 0.73866,0.1733 1.06666,-0.1733 0.33067,-0.3467 0.372,-0.8134 0.10934,-1.0667 l -5.58667,-5.1733 c -0.26667,-0.2534 -0.75067,-0.1734 -1.08667,0.1733"
         style="fill:#211d1d;fill-opacity:1;fill-rule:nonzero;stroke:none;stroke-width:0.133333" /><path
         id="path18"
         d="m 615.02132,1111.4667 5.652,5.1067 c 0.26666,0.24 0.752,0.1467 1.06533,-0.2133 0.31467,-0.3467 0.34267,-0.8134 0.0773,-1.0667 l -5.63466,-5.12 c -0.27067,-0.2533 -0.744,-0.1733 -1.064,0.1867 -0.32,0.36 -0.36667,0.8666 -0.096,1.1066"
         style="fill:#211d1d;fill-opacity:1;fill-rule:nonzero;stroke:none;stroke-width:0.133333" /><path
         id="path19"
         d="m 620.28132,1104.7601 c -0.32934,0.3466 -0.376,0.8266 -0.108,1.08 l 5.57733,5.1866 c 0.26267,0.24 0.74133,0.1734 1.06533,-0.1733 0.33067,-0.3467 0.37334,-0.8267 0.112,-1.0667 l -5.56133,-5.2133 c -0.26667,-0.24 -0.74933,-0.1733 -1.08533,0.1867"
         style="fill:#211d1d;fill-opacity:1;fill-rule:nonzero;stroke:none;stroke-width:0.133333" /><path
         id="path20"
         d="m 627.98932,1144.0934 c -4.292,0.2533 -8.05867,0.2933 -10.632,0.28 -14.264,15.0533 -26.84,21.84 -36.2,25 4.73333,-0.4 11.38667,-1.7467 19.32133,-5.48 7.95467,-3.7333 17.112,-9.88 27.51067,-19.8 z m -33.516,-54.0667 c 0,0 -1.37733,3.8534 -1.95867,8.3334 -0.59866,4.48 -0.34266,9.6 2.74,12.2533 0,0 0.928,-0.1733 2.32134,-0.4133 1.40666,-0.2267 3.28133,-0.52 5.15733,-0.8134 3.72266,-0.5466 7.444,-1.1066 7.444,-1.1066 l 6.69066,6.0266 6.684,6.0267 c 0,0 -0.0493,3.6533 -0.0987,7.32 -0.012,1.8267 -0.0227,3.64 -0.0293,5 0.0187,1.3733 0.032,2.28 0.032,2.28 3.03867,2.6133 7.964,2.4 12.116,1.6 4.14267,-0.8133 7.49067,-2.24 7.49067,-2.24 -19.88933,22 -36.73067,31.44 -49.63333,35.4933 -6.42667,2.0134 -11.74133,2.6667 -15.49333,2.8 -3.756,0.1467 -5.92934,-0.2266 -5.92934,-0.2266 0,0 -1.34666,-1.7467 -2.72266,-5.3067 -1.37334,-3.56 -2.784,-8.9467 -2.81067,-16.0533 -0.0853,-14.16 5.32133,-35.88 28,-60.9734"
         style="fill:#211d1d;fill-opacity:1;fill-rule:nonzero;stroke:none;stroke-width:0.133333" /><path
         id="path21"
         d="m 616.81465,1108.4667 c -0.29867,0.3334 -0.352,0.84 -0.0813,1.0934 l 5.62666,5.1333 c 0.26534,0.24 0.75334,0.1333 1.04667,-0.2 0.324,-0.3467 0.34933,-0.8267 0.084,-1.0667 l -5.60933,-5.16 c -0.26934,-0.24 -0.73867,-0.1733 -1.06667,0.2"
         style="fill:#211d1d;fill-opacity:1;fill-rule:nonzero;stroke:none;stroke-width:0.133333" /><path
         id="path22"
         d="m 2052.7466,997.14674 c 0,0 -2.04,-14.18666 -4.0933,-28.37333 -2.2,-14.06667 -4.3867,-28.14667 -4.3867,-28.14667 l -12.9867,9.37334 c 0,0 2.1067,14.14666 4.2134,28.29333 0.9733,7.12 1.96,14.22667 2.7066,19.57333 0.68,5.30666 1.1334,8.85336 1.1334,8.85336 0,0 3.4133,-2.2934 6.7333,-4.7467 3.3467,-2.41332 6.68,-4.82666 6.68,-4.82666"
         style="fill:#211d1d;fill-opacity:1;fill-rule:nonzero;stroke:none;stroke-width:0.133333" /><path
         id="path23"
         d="m 2027.1333,1027.1734 c 0,0 12.68,6.6933 25.56,13.24 12.8533,6.5467 25.9066,12.9733 25.9066,12.9733 l 13.8134,-9.9733 c 0,0 -12.96,-6.3067 -25.9067,-12.6133 -6.4133,-3.16 -12.8933,-6.44 -17.7067,-8.9067 -4.8133,-2.4667 -8.0266,-4.1067 -8.0266,-4.1067 l -13.64,9.3867"
         style="fill:#211d1d;fill-opacity:1;fill-rule:nonzero;stroke:none;stroke-width:0.133333" /><path
         id="path24"
         d="m 2007.7999,1040.1067 c 0,0 12.6134,6.96 25.4267,13.7067 12.7067,6.6667 25.6,13.2 25.6,13.2 l 14.0933,-9.7067 c 0,0 -13.0133,-6.4533 -25.8266,-13.04 -12.84,-6.5733 -25.4667,-13.2933 -25.4667,-13.2933 0,0 -3.4,2.3867 -6.8933,4.6133 -3.4667,2.2667 -6.9334,4.52 -6.9334,4.52"
         style="fill:#211d1d;fill-opacity:1;fill-rule:nonzero;stroke:none;stroke-width:0.133333" /><path
         id="path25"
         d="m 1989.5733,1052.0001 c 0,0 12.44,7.04 25.1066,13.9466 12.64,6.9067 25.52,13.6667 25.52,13.6667 0,0 3.6,-2.36 7.1867,-4.72 3.52,-2.4267 7.0533,-4.8533 7.0533,-4.8533 0,0 -3.2133,-1.64 -8.0266,-4.1067 -4.7867,-2.4667 -11.1734,-5.7867 -17.5867,-9.2133 -12.8,-6.8134 -25.3733,-13.7734 -25.3733,-13.7734 l -13.88,9.0534"
         style="fill:#211d1d;fill-opacity:1;fill-rule:nonzero;stroke:none;stroke-width:0.133333" /><path
         id="path26"
         d="m 1991.7733,977.80008 c 0,0 -3.28,2.26666 -6.56,4.52 -3.3067,2.17333 -6.6267,4.34666 -6.6267,4.34666 0,0 1.64,14.07996 3.0534,28.33336 1.4266,14.2266 2.6133,28.6133 2.6133,28.6133 l 13.7733,-8.9867 c 0,0 -1.32,-14.3066 -2.88,-28.44 -0.7466,-7.05329 -1.6,-14.17329 -2.2666,-19.50662 -0.6667,-5.33334 -1.1067,-8.88 -1.1067,-8.88"
         style="fill:#211d1d;fill-opacity:1;fill-rule:nonzero;stroke:none;stroke-width:0.133333" /><path
         id="path27"
         d="m 2016.0666,1022.7467 c 0,0 -1.5867,-14.3333 -3.3733,-28.51996 -1.76,-14.21333 -3.72,-28.26666 -3.72,-28.26666 l -13.1067,9.02666 c 0,0 1.8534,14.13334 3.5067,28.42666 1.6133,14.1467 2.9733,28.4 2.9733,28.4 0,0 3.44,-2.2533 6.88,-4.4933 3.4667,-2.2134 6.84,-4.5734 6.84,-4.5734"
         style="fill:#211d1d;fill-opacity:1;fill-rule:nonzero;stroke:none;stroke-width:0.133333" /><path
         id="path28"
         d="m 2035.0933,1009.6267 c 0,0 -0.44,-3.5466 -1.1067,-8.8666 -0.68,-5.32002 -1.5867,-12.36002 -2.6,-19.50669 -2.0667,-14.16 -4.1467,-28.33333 -4.1467,-28.33333 l -12.9733,9.37333 c 0,0 2.0133,14.04 3.8267,28.21333 1.8266,14.15996 3.4533,28.45336 3.4533,28.45336 l 13.5467,-9.3334"
         style="fill:#211d1d;fill-opacity:1;fill-rule:nonzero;stroke:none;stroke-width:0.133333" /><path
         id="path29"
         d="m 2045.0399,1014.8534 c 0,0 3.2134,1.64 8.0267,4.0933 4.8267,2.4 11.2533,5.5867 17.68,8.7867 12.9733,6.2933 25.96,12.5733 25.96,12.5733 l 13.8,-9.9733 c 0,0 -13.0667,-6.2267 -26.1467,-12.44 -12.9066,-6.3333 -25.8266,-12.6667 -25.8266,-12.6667 0,0 -3.36,2.4267 -6.72,4.8534 -3.3334,2.4666 -6.7734,4.7733 -6.7734,4.7733"
         style="fill:#211d1d;fill-opacity:1;fill-rule:nonzero;stroke:none;stroke-width:0.133333" /><path
         id="path30"
         d="m 2059.3599,995.58674 c 0,0 -4.92,3.54667 -14.1333,10.19996 -4.68,3.2267 -10.4533,7.2134 -17.2267,11.8934 -6.7866,4.6666 -14.5466,10.1066 -23.4933,15.8133 -8.9066,5.7333 -18.6133,12.3733 -29.5866,18.9333 -5.44,3.3334 -11.1067,6.8134 -16.9867,10.4267 -5.9067,3.56 -12.1733,7.0133 -18.56,10.7067 -6.4,3.6666 -12.9867,7.52 -19.9733,11.08 -6.9334,3.64 -14.0267,7.4933 -21.4,11.2533 -7.4534,3.6 -15.0934,7.28 -22.92,11.0667 -7.8667,3.68 -16.0934,7.0666 -24.3867,10.7466 -33.4667,13.9734 -70.84,26.8 -111.64,34.84 -5.1067,0.9067 -10.2533,1.8267 -15.44,2.76 -2.5867,0.44 -5.1867,0.9467 -7.8,1.36 -2.6267,0.3334 -5.2533,0.6667 -7.9067,0.9867 -5.28,0.6667 -10.6,1.3467 -15.9466,2.0133 -5.3734,0.5067 -10.7867,0.8267 -16.2134,1.2534 -10.8666,1.0666 -21.9066,0.92 -33.0266,1.28 -5.56,0.1066 -11.16,-0.2267 -16.7734,-0.32 -5.6133,-0.2 -11.2533,-0.1734 -16.9066,-0.72 -45.2534,-2.8934 -91.6267,-11.28 -137.5067,-24.24 -45.9467,-12.7734 -91.6267,-29.2534 -136.5333,-47.56 -44.8987,-18.3734 -89.1107,-38.4267 -132.3147,-58.8267 -10.7773,-5.1467 -21.5133,-10.28 -32.1947,-15.3867 -10.7533,-5 -21.6213,-9.7333 -32.332,-14.56 -21.688,-9.06662 -43.5146,-17.14662 -65.5133,-23.41329 -43.8933,-12.78667 -88.07599,-19.33333 -130.05866,-19.33333 l -3.92666,-0.0933 -3.91067,0.16 c -2.604,0.12 -5.19733,0.24 -7.78267,0.34667 -5.168,0.24 -10.3,0.46667 -15.39333,0.70667 -5.08267,0.36 -10.09867,1.09333 -15.08933,1.61333 -4.98267,0.6 -9.94534,1.06667 -14.83067,1.77333 -4.856,0.89334 -9.67333,1.77334 -14.44667,2.65334 -2.38666,0.42666 -4.76266,0.86666 -7.12799,1.30666 l -3.54,0.64 -3.47334,0.88 c -4.62133,1.16 -9.19866,2.32 -13.73066,3.45334 -2.26667,0.57333 -4.52134,1.14666 -6.76534,1.70666 -2.244,0.56 -4.40666,1.37334 -6.596,2.04 -35.088,10.62667 -65.66266,25.05332 -91.336,40.02662 -25.70266,15 -46.58933,30.5067 -63.11999,44 -8.092,6.96 -15.428,13.04 -21.42267,18.7733 -3.028,2.8267 -5.904,5.3734 -8.40667,7.84 -2.49866,2.4667 -4.76933,4.7067 -6.80266,6.72 -4.108,3.9867 -7.10267,7.1867 -9.13067,9.3334 -2.03333,2.1333 -3.08267,3.24 -3.08267,3.24 l 3.77067,3.5466 c 0,0 1.04,-1.0933 3.05333,-3.2266 2.008,-2.12 4.97334,-5.2934 9.04134,-9.2267 2.01333,-1.9867 4.26133,-4.2133 6.736,-6.6667 2.47733,-2.44 5.32666,-4.9466 8.324,-7.76 5.936,-5.6666 13.19866,-11.6933 21.20933,-18.5866 16.36133,-13.3467 37.028,-28.6934 62.43733,-43.52 25.38,-14.8 55.584,-29.05332 90.22267,-39.54665 2.16266,-0.65333 4.296,-1.45333 6.51333,-2 2.21467,-0.56 4.44133,-1.12 6.67733,-1.69333 4.47467,-1.12 8.992,-2.26667 13.55334,-3.41334 l 3.42933,-0.85333 3.49467,-0.65333 c 2.33466,-0.42667 4.68,-0.85334 7.03599,-1.28 4.712,-0.86667 9.46534,-1.74667 14.26,-2.62667 4.82267,-0.69333 9.72134,-1.14667 14.64,-1.74667 4.928,-0.50666 9.87734,-1.24 14.896,-1.6 5.02934,-0.22666 10.096,-0.45333 15.2,-0.68 2.552,-0.12 5.11334,-0.24 7.684,-0.34666 l 3.86267,-0.16 3.87867,0.0933 c 41.46266,0 85.14402,6.46667 128.61332,19.13333 21.7853,6.2 43.4213,14.21334 64.9333,23.19995 10.6374,4.8 21.3814,9.4667 32.1067,14.4534 10.6933,5.12 21.44,10.2533 32.2293,15.4133 43.2574,20.4267 87.5467,40.52 132.5694,58.9333 45.036,18.36 90.8893,34.9067 137.116,47.76 46.1333,13.0267 92.88,21.4934 138.56,24.4134 5.7066,0.56 11.4133,0.5333 17.08,0.72 5.6666,0.093 11.3066,0.44 16.9333,0.3333 11.24,-0.36 22.3867,-0.2267 33.36,-1.2933 5.4933,-0.4267 10.96,-0.76 16.3867,-1.2667 5.4,-0.68 10.7866,-1.36 16.12,-2.0267 2.6666,-0.3333 5.3333,-0.68 7.9866,-1.0133 2.64,-0.4133 5.2667,-0.92 7.88,-1.3733 5.24,-0.9334 10.44,-1.8667 15.6,-2.7867 41.2,-8.1067 78.9067,-21.0667 112.6267,-35.1467 8.36,-3.6933 16.64,-7.1066 24.56,-10.8133 7.88,-3.8133 15.5733,-7.52 23.0667,-11.1467 7.4266,-3.7733 14.5466,-7.6533 21.5333,-11.3066 7.0267,-3.6 13.64,-7.4534 20.08,-11.1467 6.4133,-3.7067 12.7067,-7.1733 18.64,-10.76 5.9067,-3.6267 11.6,-7.12 17.08,-10.48 11.0133,-6.5733 20.7467,-13.24 29.7066,-19 8.9734,-5.7333 16.76,-11.1867 23.56,-15.8667 6.8134,-4.7066 12.6,-8.6933 17.2934,-11.9333 9.24,-6.68 14.1733,-10.23998 14.1733,-10.23998 l -3.0267,-4.18667"
         style="fill:#211d1d;fill-opacity:1;fill-rule:nonzero;stroke:none;stroke-width:0.133333" /></g></g></svg>
